<?xml version="1.0" encoding="utf-8"?>
<svg width="100" height="100" viewBox="0 0 100 100" fill="none" xmlns="http://www.w3.org/2000/svg">
  <g>
    <g>
      <path d="M50 0L50 0C77.618 0 100 22.382 100 50L100 50C100 77.618 77.618 100 50 100L50 100C22.382 100 0 77.618 0 50L0 50C0 22.382 22.382 0 50 0L50 0Z" fill="#478CFB" />
      <g transform="translate(14 32)">
        <path d="M0 35C2.2981 35 4.5738 34.5474 6.697 33.6679C8.8202 32.7884 10.7493 31.4994 12.3744 29.8744C13.9994 28.2493 15.2884 26.3202 16.1679 24.197C17.0473 22.0738 17.5 19.7981 17.5 17.5C17.5 15.2019 17.0473 12.9262 16.1679 10.803C15.2884 8.6798 13.9994 6.7507 12.3744 5.1256C10.7493 3.5006 8.8202 2.2116 6.697 1.3321C4.5738 0.452702 2.2981 0 0 0C0 0 0 9.9967 0 9.9967C0.985298 9.9967 1.961 10.1908 2.8714 10.5679C3.7817 10.945 4.6089 11.4977 5.3056 12.1944C6.0023 12.8911 6.555 13.7183 6.9321 14.6286C7.3092 15.539 7.5032 16.5147 7.5032 17.5C7.5032 18.4853 7.3092 19.461 6.9321 20.3714C6.555 21.2817 6.0023 22.1089 5.3056 22.8056C4.6089 23.5023 3.7817 24.055 2.8714 24.4321C1.961 24.8092 0.985298 25.0033 0 25.0033C0 25.0033 0 35 0 35Z" fill="#282727" fill-rule="evenodd" transform="translate(55 0)" />
        <path d="M5 0C5 0 25 0 25 0L25 0C25 0 25 5 25 5C25 7.7618 22.7618 10 20 10C20 10 5 10 5 10C2.2382 10 0 7.7618 0 5C0 5 0 5 0 5C0 2.2382 2.2382 0 5 0C5 0 5 0 5 0Z" fill="#282727" transform="translate(35 25)" />
        <line x1="0" y1="25" x2="20" y2="0" fill="none" stroke-width="10" stroke="#282727" stroke-opacity="0.698" stroke-linecap="round" transform="translate(20 5)" />
        <line x1="0" y1="25" x2="20" y2="0" fill="none" stroke-width="10" stroke="#282727" stroke-opacity="0.698" stroke-linecap="round" transform="translate(0 5)" />
        <path d="M5 0C5 0 5 0 5 0C7.7618 0 10 2.2382 10 5C10 5 10 30 10 30C10 32.7618 7.7618 35 5 35C5 35 5 35 5 35C2.2382 35 0 32.7618 0 30C0 30 0 5 0 5C0 2.2382 2.2382 0 5 0C5 0 5 0 5 0Z" fill="#282727" transform="translate(35 0)" />
        <path d="M5 0C5 0 5 0 5 0C7.7618 0 10 2.2382 10 5C10 5 10 30 10 30C10 32.7618 7.7618 35 5 35C5 35 5 35 5 35C2.2382 35 0 32.7618 0 30C0 30 0 5 0 5C0 2.2382 2.2382 0 5 0C5 0 5 0 5 0Z" fill="#282727" transform="translate(15 0)" />
        <path d="M0 5C0 2.23858 2.23857 0 5 0C7.76143 0 10 2.23858 10 5C10 7.76142 7.76143 10 5 10C2.23857 10 0 7.76142 0 5Z" fill="#282727" fill-rule="evenodd" transform="translate(50 0)" />
      </g>
    </g>
  </g>
</svg>