<?xml version="1.0" encoding="utf-8"?>
<svg width="200" height="200" viewBox="0 0 200 200" fill="none" xmlns="http://www.w3.org/2000/svg">
  <defs>
    <clipPath id="clip_path_1">
      <rect width="200" height="200" rx="1000" />
    </clipPath>
  </defs>
  <g clip-path="url(#clip_path_1)">
    <rect width="200" height="200" fill="#343537" fill-rule="evenodd" />
    <path d="M96.4746 111.6L96.4746 32.4105L73.2129 32.4105L59.0332 75.7113L53.877 93.4945L53.6426 93.4945L48.6035 75.5941L34.3066 32.4105L10.3125 32.4105L10.3125 111.6L25.3125 111.6L25.3125 70.3207L24.4922 47.1469L24.7266 47.1469L46.5527 111.6L60.1172 111.6L82.0898 47.1469L82.3242 47.1469L81.5918 70.3207L81.5918 111.6L96.4746 111.6ZM176.527 42.6645Q166.331 32.4105 147.728 32.4105L117.112 32.4105L117.112 111.6L147.728 111.6Q166.331 111.6 176.527 101.287Q186.722 90.9457 186.722 71.9906Q186.722 52.9184 176.527 42.6645ZM163.841 91.6195Q158.157 98.3871 146.878 98.3871L133.695 98.3871L133.695 45.5941L146.878 45.5941Q158.157 45.5941 163.841 52.391Q169.554 59.1586 169.554 71.9906Q169.554 84.852 163.841 91.6195Z" fill="#478CFB" transform="translate(6 30)" />
  </g>
</svg>