<?xml version="1.0" encoding="utf-8"?>
<svg width="77.5" height="35" viewBox="0 0 77.5 35" fill="none" xmlns="http://www.w3.org/2000/svg">
  <g transform="translate(5 0)">
    <path d="M9.99675 17.5C9.99675 17.5 0 17.5 0 17.5C0 19.7981 0.452648 22.0738 1.33211 24.197C2.21157 26.3202 3.50061 28.2493 5.12563 29.8744C6.75066 31.4994 8.67984 32.7884 10.803 33.6679C12.9262 34.5473 15.2019 35 17.5 35C19.7981 35 22.0738 34.5473 24.197 33.6679C26.3202 32.7884 28.2493 31.4994 29.8744 29.8744C31.4994 28.2493 32.7884 26.3202 33.6679 24.197C34.5473 22.0738 35 19.7981 35 17.5C35 17.5 25.0033 17.5 25.0033 17.5C25.0033 18.4853 24.8092 19.461 24.4321 20.3714C24.055 21.2817 23.5023 22.1089 22.8056 22.8056C22.1089 23.5023 21.2817 24.055 20.3714 24.4321C19.461 24.8092 18.4853 25.0032 17.5 25.0032C16.5147 25.0032 15.539 24.8092 14.6286 24.4321C13.7183 24.055 12.8911 23.5023 12.1944 22.8056C11.4977 22.1089 10.945 21.2817 10.5679 20.3714C10.1908 19.461 9.99675 18.4853 9.99675 17.5Z" fill="#478CFB" fill-rule="evenodd" transform="matrix(0 -1 1 0 37.5 35)" />
    <path d="M5 0L25 0L25 0L25 5C25 7.7618 22.7618 10 20 10L5 10C2.2382 10 0 7.7618 0 5L0 5C0 2.2382 2.2382 0 5 0L5 0Z" fill="#478CFB" transform="translate(35 25)" />
    <line x1="0" y1="25" x2="20" y2="0" fill="none" stroke-width="10" stroke="#468BFA" stroke-opacity="0.698" stroke-linecap="round" transform="translate(20 5)" />
    <line x1="0" y1="25" x2="20" y2="0" fill="none" stroke-width="10" stroke="#468BFA" stroke-opacity="0.698" stroke-linecap="round" transform="translate(0 5)" />
    <path d="M5 0L5 0C7.7618 0 10 2.2382 10 5L10 30C10 32.7618 7.7618 35 5 35L5 35C2.2382 35 0 32.7618 0 30L0 5C0 2.2382 2.2382 0 5 0L5 0Z" fill="#478CFB" transform="translate(35 0)" />
    <path d="M5 0L5 0C7.7618 0 10 2.2382 10 5L10 30C10 32.7618 7.7618 35 5 35L5 35C2.2382 35 0 32.7618 0 30L0 5C0 2.2382 2.2382 0 5 0L5 0Z" fill="#478CFB" transform="translate(15 0)" />
    <path d="M0 5C0 2.23858 2.23857 0 5 0C7.76143 0 10 2.23858 10 5C10 7.76142 7.76143 10 5 10C2.23857 10 0 7.76142 0 5Z" fill="#478CFB" fill-rule="evenodd" transform="translate(50 0)" />
  </g>
</svg>