<?xml version="1.0" encoding="utf-8"?>
<svg width="232.5" height="35" viewBox="0 0 232.5 35" fill="none" xmlns="http://www.w3.org/2000/svg">
  <g>
    <g transform="translate(5 -0)">
      <g>
        <line x1="0" y1="25" x2="20" y2="0" fill="none" stroke-width="10" stroke="#478CFB" stroke-opacity="0.698" stroke-linecap="round" transform="translate(20 5)" />
        <line x1="0" y1="25" x2="20" y2="0" fill="none" stroke-width="10" stroke="#478CFB" stroke-opacity="0.698" stroke-linecap="round" transform="translate(0 5)" />
        <path d="M5 0C7.7618 0 10 2.2382 10 5C10 5 10 30 10 30C10 32.7618 7.7618 35 5 35C5 35 5 35 5 35C2.2382 35 0 32.7618 0 30C0 30 0 5 0 5C0 2.2382 2.2382 0 5 0C5 0 5 0 5 0C5 0 5 0 5 0Z" fill="#478CFB" transform="translate(35 0)" />
        <path d="M5 0C7.7618 0 10 2.2382 10 5C10 5 10 30 10 30C10 32.7618 7.7618 35 5 35C5 35 5 35 5 35C2.2382 35 0 32.7618 0 30C0 30 0 5 0 5C0 2.2382 2.2382 0 5 0C5 0 5 0 5 0C5 0 5 0 5 0Z" fill="#478CFB" transform="translate(15 0)" />
        <g transform="matrix(-1 0 0 1 124.5 0)">
          <path d="M10 0C10 0 10 0 10 0C10 0 5 0 5 0C2.23819 0 0 2.2382 0 5C0 5 0 30 0 30C0 32.7618 2.2382 35 5 35C5 35 5 35 5 35C7.7618 35 10 32.7618 10 30C10 30 10 30 10 30C10 30 10 0 10 0Z" fill="#478CFB" transform="translate(13 0)" />
          <g transform="matrix(-1 0 0 1 23 0)">
            <path d="M17.5 0C15.2019 0 12.9262 0.452702 10.803 1.3321C8.6798 2.2116 6.7507 3.5006 5.1256 5.1256C3.5006 6.7507 2.2116 8.6798 1.3321 10.803C0.4527 12.9262 0 15.2019 0 17.5C0 17.5 9.9968 17.5 9.9968 17.5C9.9968 16.5147 10.1908 15.539 10.5679 14.6286C10.945 13.7183 11.4977 12.8911 12.1944 12.1944C12.8911 11.4977 13.7183 10.945 14.6286 10.5679C15.539 10.1908 16.5147 9.9968 17.5 9.9968C17.5 9.9968 17.5 0 17.5 0Z" fill="#478CFB" fill-rule="evenodd" />
            <path d="M10 5C10 2.23858 7.76142 0 5 0C2.23858 0 0 2.23858 0 5C0 7.76142 2.23858 10 5 10C7.76142 10 10 7.76142 10 5Z" fill="#478CFB" fill-rule="evenodd" transform="translate(13 0)" />
          </g>
        </g>
        <g transform="matrix(-1 0 0 1 93 0)">
          <path d="M16.5363 34.9987C19.7871 35.0379 22.9845 34.1707 25.77 32.4945C28.5556 30.8183 30.8192 28.3992 32.3069 25.5086C33.7947 22.618 34.4479 19.3701 34.1932 16.1291C33.9385 12.8881 32.7861 9.78212 30.8651 7.15931C28.9441 4.53661 26.3304 2.50082 23.3173 1.28021C20.3041 0.0596147 17.0104 -0.297487 13.8057 0.249014C10.6009 0.795412 7.61172 2.22372 5.17323 4.37382C2.73474 6.52391 0.943384 9.31071 0 12.4218C0 12.4218 9.5666 15.3227 9.5666 15.3227C9.9711 13.9888 10.7391 12.7939 11.7847 11.872C12.8302 10.9502 14.1118 10.3378 15.4859 10.1035C16.86 9.86922 18.2721 10.0223 19.564 10.5457C20.856 11.069 21.9766 11.9418 22.8002 13.0664C23.6239 14.1909 24.118 15.5226 24.2272 16.9122C24.3364 18.3018 24.0563 19.6944 23.4184 20.9338C22.7805 22.1731 21.81 23.2103 20.6157 23.929C19.4214 24.6477 18.0504 25.0195 16.6567 25.0027C16.6567 25.0027 16.5363 34.9987 16.5363 34.9987Z" fill="#478CFB" fill-rule="evenodd" transform="translate(3.253 0)" />
          <path d="M25 0C25 0 25 0 25 0C25 0 25 5 25 5C25 7.7618 22.7618 10 20 10C20 10 5 10 5 10C2.2382 10 0 7.7618 0 5C0 5 0 5 0 5C0 2.2382 2.2382 0 5 0C5 0 5 0 5 0C5 0 25 0 25 0Z" fill="#478CFB" transform="translate(0 25)" />
          <path d="M0 5C0 2.23858 2.23858 0 5 0C7.76142 0 10 2.23858 10 5C10 7.76142 7.76142 10 5 10C2.23858 10 0 7.76142 0 5Z" fill="#478CFB" fill-rule="evenodd" transform="translate(3 9)" />
        </g>
        <g transform="translate(190 0)">
          <path d="M0 35C2.2981 35 4.5738 34.5474 6.697 33.6679C8.8202 32.7884 10.7493 31.4994 12.3744 29.8744C13.9994 28.2493 15.2884 26.3202 16.1679 24.197C17.0473 22.0738 17.5 19.7981 17.5 17.5C17.5 15.2019 17.0473 12.9262 16.1679 10.803C15.2884 8.6798 13.9994 6.7507 12.3744 5.1256C10.7493 3.5006 8.8202 2.2116 6.697 1.3321C4.5738 0.452599 2.2981 0 0 0C0 0 0 9.9968 0 9.9968C0.9853 9.9968 1.961 10.1908 2.8714 10.5679C3.7817 10.945 4.6089 11.4977 5.3056 12.1944C6.0023 12.8911 6.555 13.7183 6.9321 14.6286C7.3092 15.539 7.5032 16.5147 7.5032 17.5C7.5032 18.4853 7.3092 19.461 6.9321 20.3714C6.555 21.2817 6.0023 22.1089 5.3056 22.8056C4.6089 23.5023 3.7817 24.055 2.8714 24.4321C1.961 24.8092 0.9853 25.0033 0 25.0033C0 25.0033 0 35 0 35Z" fill="#478CFB" fill-rule="evenodd" transform="translate(20 0)" />
          <path d="M25 0C25 0 25 0 25 0C25 0 25 5 25 5C25 7.7618 22.7618 10 20 10C20 10 5 10 5 10C2.2382 10 0 7.7618 0 5C0 5 0 5 0 5C0 2.2382 2.2382 0 5 0C5 0 5 0 5 0C5 0 25 0 25 0Z" fill="#478CFB" transform="translate(0 25)" />
          <path d="M0 5C0 2.23858 2.23858 0 5 0C7.76142 0 10 2.23858 10 5C10 7.76142 7.76142 10 5 10C2.23858 10 0 7.76142 0 5Z" fill="#478CFB" fill-rule="evenodd" transform="translate(15 0)" />
        </g>
        <g transform="matrix(-1 0 0 1 168 0)">
          <path d="M0 35C2.2981 35 4.5738 34.5474 6.697 33.6679C8.8202 32.7884 10.7493 31.4994 12.3744 29.8744C13.9994 28.2493 15.2884 26.3202 16.1679 24.197C17.0473 22.0738 17.5 19.7981 17.5 17.5C17.5 15.2019 17.0473 12.9262 16.1679 10.803C15.2884 8.6798 13.9994 6.7507 12.3744 5.1256C10.7493 3.5006 8.8202 2.2116 6.697 1.3321C4.5738 0.452599 2.2981 0 0 0C0 0 0 9.9968 0 9.9968C0.9853 9.9968 1.961 10.1908 2.8714 10.5679C3.7817 10.945 4.6089 11.4977 5.3056 12.1944C6.0023 12.8911 6.555 13.7183 6.9321 14.6286C7.3092 15.539 7.5032 16.5147 7.5032 17.5C7.5032 18.4853 7.3092 19.461 6.9321 20.3714C6.555 21.2817 6.0023 22.1089 5.3056 22.8056C4.6089 23.5023 3.7817 24.055 2.8714 24.4321C1.961 24.8092 0.9853 25.0033 0 25.0033C0 25.0033 0 35 0 35Z" fill="#478CFB" fill-rule="evenodd" transform="translate(20 0)" />
          <path d="M25 0C25 0 25 0 25 0C25 0 25 5 25 5C25 7.7618 22.7618 10 20 10C20 10 5 10 5 10C2.2382 10 0 7.7618 0 5C0 5 0 5 0 5C0 2.2382 2.2382 0 5 0C5 0 5 0 5 0C5 0 25 0 25 0Z" fill="#478CFB" transform="translate(0 25)" />
          <path d="M25 0C25 0 25 0 25 0C25 0 25 5 25 5C25 7.7618 22.7618 10 20 10C20 10 5 10 5 10C2.2382 10 0 7.7618 0 5C0 5 0 5 0 5C0 2.2382 2.2382 0 5 0C5 0 5 0 5 0C5 0 25 0 25 0Z" fill="#478CFB" transform="matrix(1 0 0 -1 0 10)" />
        </g>
        <path d="M0 5C0 2.23858 2.23857 0 5 0C7.76143 0 10 2.23858 10 5C10 7.76143 7.76143 10 5 10C2.23857 10 0 7.76143 0 5Z" fill="#478CFB" fill-rule="evenodd" transform="translate(174 25)" />
      </g>
    </g>
  </g>
</svg>